<svg width="512" height="554" viewBox="0 0 512 554" fill="none" xmlns="http://www.w3.org/2000/svg">
<rect width="512" height="512" rx="256" fill="#EEEEEE"/>
<path d="M330.308 388.072L158.276 159.208C155.46 155.112 152.388 152.424 149.06 151.144C145.732 149.608 140.356 148.456 132.932 147.688C132.164 144.104 131.524 140.264 131.012 136.168C130.756 132.072 130.628 128.104 130.628 124.264C133.444 124.52 137.284 124.776 142.148 125.032C147.268 125.032 152.388 125.16 157.508 125.416C162.628 125.416 166.98 125.416 170.564 125.416C176.452 125.416 182.724 125.416 189.38 125.416C196.036 125.16 201.412 124.776 205.508 124.264L337.604 302.056L330.308 388.072ZM130.628 386.152C130.628 381.288 130.756 376.936 131.012 373.096C131.268 369.256 131.908 365.8 132.932 362.728C140.356 362.216 146.116 360.424 150.212 357.352C154.564 354.024 157.508 348.392 159.044 340.456C160.836 332.52 161.732 321.384 161.732 307.048V149.608L186.308 151.528V307.048C186.308 321.384 187.076 332.52 188.612 340.456C190.148 348.392 192.964 354.024 197.06 357.352C201.412 360.424 207.3 362.216 214.724 362.728C215.748 365.8 216.388 369.384 216.644 373.48C216.9 377.576 217.028 381.8 217.028 386.152C213.444 385.896 209.092 385.64 203.972 385.384C198.852 385.384 193.732 385.256 188.612 385C183.492 385 178.884 385 174.788 385C170.692 385 165.7 385 159.812 385C154.18 385.256 148.676 385.384 143.3 385.384C137.924 385.64 133.7 385.896 130.628 386.152ZM330.308 388.072L332.228 331.624V202.6C332.228 188.264 331.46 177.256 329.924 169.576C328.388 161.896 325.444 156.52 321.092 153.448C316.74 150.12 310.596 148.2 302.66 147.688C301.636 143.336 300.868 139.24 300.356 135.4C300.1 131.304 299.972 127.592 299.972 124.264C303.812 124.52 308.292 124.776 313.412 125.032C318.788 125.032 324.164 125.16 329.54 125.416C334.916 125.416 339.652 125.416 343.748 125.416C349.636 125.416 356.292 125.288 363.716 125.032C371.396 124.776 377.668 124.52 382.532 124.264C382.532 128.104 382.404 132.072 382.148 136.168C381.892 140.008 381.252 143.848 380.228 147.688C373.828 148.2 368.964 149.992 365.636 153.064C362.308 156.136 359.876 161.512 358.34 169.192C357.06 176.872 356.42 188.008 356.42 202.6V385C352.836 386.28 348.868 387.048 344.516 387.304C340.164 387.816 335.428 388.072 330.308 388.072Z" fill="#1A1A1A"/>
</svg>
