<svg width="49" height="49" viewBox="0 0 49 49" fill="none" xmlns="http://www.w3.org/2000/svg">
<circle cx="24.5" cy="24.5" r="24.5" fill="#161313"/>
<g clip-path="url(#clip0_197_938)">
<path d="M21.807 12.6537C21.9487 12.8259 22.0356 13.0367 22.0563 13.2588C22.077 13.4809 22.0306 13.7041 21.9232 13.8995C21.0837 15.4408 20.6453 17.1685 20.6483 18.9236C20.6483 24.7623 25.4081 29.4901 31.2744 29.4901C32.0396 29.4901 32.7845 29.4103 33.5003 29.2578C33.7198 29.2103 33.9484 29.2285 34.1575 29.3101C34.3667 29.3917 34.5472 29.5331 34.6765 29.7167C34.813 29.9075 34.8826 30.1382 34.8744 30.3727C34.8663 30.6072 34.7809 30.8324 34.6315 31.0133C33.4926 32.4123 32.0559 33.5395 30.4261 34.3127C28.7963 35.0859 27.0145 35.4856 25.2106 35.4827C18.5167 35.4827 13.0947 30.0898 13.0947 23.4453C13.0947 18.4444 16.1644 14.1551 20.535 12.3371C20.7527 12.2451 20.9944 12.2262 21.2238 12.2833C21.4532 12.3404 21.6578 12.4703 21.807 12.6537Z" fill="white"/>
</g>
<defs>
<clipPath id="clip0_197_938">
<rect width="23.2328" height="23.2328" fill="white" transform="translate(13.0947 12.25)"/>
</clipPath>
</defs>
</svg>
