<svg width="49" height="49" viewBox="0 0 49 49" fill="none" xmlns="http://www.w3.org/2000/svg">
<circle cx="24.5" cy="24.5" r="23.5" fill="white" stroke="#161313" stroke-width="2"/>
<path d="M24.2886 19.8711C23.005 19.8711 21.7738 20.381 20.8661 21.2887C19.9584 22.1964 19.4485 23.4276 19.4485 24.7113C19.4485 25.9949 19.9584 27.2261 20.8661 28.1338C21.7738 29.0415 23.005 29.5514 24.2886 29.5514C25.5723 29.5514 26.8034 29.0415 27.7112 28.1338C28.6189 27.2261 29.1288 25.9949 29.1288 24.7113C29.1288 23.4276 28.6189 22.1964 27.7112 21.2887C26.8034 20.381 25.5723 19.8711 24.2886 19.8711Z" fill="#161313"/>
<path fill-rule="evenodd" clip-rule="evenodd" d="M24.2887 14.0629C24.5455 14.0629 24.7917 14.1649 24.9732 14.3464C25.1548 14.5279 25.2568 14.7742 25.2568 15.0309V15.9989C25.2568 16.2557 25.1548 16.5019 24.9732 16.6834C24.7917 16.865 24.5455 16.967 24.2887 16.967C24.032 16.967 23.7858 16.865 23.6042 16.6834C23.4227 16.5019 23.3207 16.2557 23.3207 15.9989V15.0309C23.3207 14.7742 23.4227 14.5279 23.6042 14.3464C23.7858 14.1649 24.032 14.0629 24.2887 14.0629ZM15.8601 16.2826C16.0416 16.1011 16.2878 15.9991 16.5445 15.9991C16.8012 15.9991 17.0473 16.1011 17.2289 16.2826L18.6809 17.7346C18.8573 17.9172 18.9548 18.1617 18.9526 18.4155C18.9504 18.6693 18.8486 18.9121 18.6691 19.0916C18.4896 19.2711 18.2469 19.3729 17.993 19.3751C17.7392 19.3773 17.4947 19.2797 17.3121 19.1034L15.8601 17.6514C15.6786 17.4698 15.5767 17.2236 15.5767 16.967C15.5767 16.7103 15.6786 16.4641 15.8601 16.2826ZM32.7174 16.2826C32.8989 16.4641 33.0008 16.7103 33.0008 16.967C33.0008 17.2236 32.8989 17.4698 32.7174 17.6514L31.2653 19.1034C31.176 19.1959 31.0692 19.2696 30.9511 19.3203C30.833 19.3711 30.706 19.3978 30.5774 19.3989C30.4489 19.4 30.3214 19.3755 30.2025 19.3268C30.0835 19.2782 29.9754 19.2063 29.8845 19.1154C29.7936 19.0245 29.7218 18.9164 29.6731 18.7975C29.6244 18.6785 29.5999 18.551 29.601 18.4225C29.6022 18.294 29.6289 18.1669 29.6796 18.0488C29.7303 17.9307 29.8041 17.8239 29.8965 17.7346L31.3486 16.2826C31.5301 16.1011 31.7763 15.9991 32.033 15.9991C32.2897 15.9991 32.5358 16.1011 32.7174 16.2826ZM13.6404 24.7112C13.6404 24.4545 13.7424 24.2083 13.9239 24.0267C14.1055 23.8452 14.3517 23.7432 14.6084 23.7432H15.5764C15.8332 23.7432 16.0794 23.8452 16.2609 24.0267C16.4425 24.2083 16.5445 24.4545 16.5445 24.7112C16.5445 24.9679 16.4425 25.2142 16.2609 25.3957C16.0794 25.5773 15.8332 25.6792 15.5764 25.6792H14.6084C14.3517 25.6792 14.1055 25.5773 13.9239 25.3957C13.7424 25.2142 13.6404 24.9679 13.6404 24.7112ZM32.033 24.7112C32.033 24.4545 32.135 24.2083 32.3165 24.0267C32.4981 23.8452 32.7443 23.7432 33.001 23.7432H33.969C34.2258 23.7432 34.472 23.8452 34.6535 24.0267C34.8351 24.2083 34.9371 24.4545 34.9371 24.7112C34.9371 24.9679 34.8351 25.2142 34.6535 25.3957C34.472 25.5773 34.2258 25.6792 33.969 25.6792H33.001C32.7443 25.6792 32.4981 25.5773 32.3165 25.3957C32.135 25.2142 32.033 24.9679 32.033 24.7112ZM18.6809 30.319C18.8624 30.5006 18.9643 30.7467 18.9643 31.0034C18.9643 31.2601 18.8624 31.5063 18.6809 31.6878L17.2289 33.1399C17.0463 33.3162 16.8018 33.4138 16.548 33.4116C16.2941 33.4094 16.0514 33.3076 15.8719 33.1281C15.6924 32.9486 15.5906 32.7058 15.5884 32.452C15.5862 32.1982 15.6837 31.9536 15.8601 31.7711L17.3121 30.319C17.4937 30.1375 17.7398 30.0356 17.9965 30.0356C18.2532 30.0356 18.4994 30.1375 18.6809 30.319ZM29.8965 30.319C30.0781 30.1375 30.3242 30.0356 30.5809 30.0356C30.8376 30.0356 31.0838 30.1375 31.2653 30.319L32.7174 31.7711C32.8937 31.9536 32.9913 32.1982 32.9891 32.452C32.9869 32.7058 32.8851 32.9486 32.7056 33.1281C32.5261 33.3076 32.2833 33.4094 32.0295 33.4116C31.7757 33.4138 31.5312 33.3162 31.3486 33.1399L29.8965 31.6878C29.7151 31.5063 29.6131 31.2601 29.6131 31.0034C29.6131 30.7467 29.7151 30.5006 29.8965 30.319ZM24.2887 32.4555C24.5455 32.4555 24.7917 32.5575 24.9732 32.739C25.1548 32.9205 25.2568 33.1668 25.2568 33.4235V34.3915C25.2568 34.6483 25.1548 34.8945 24.9732 35.076C24.7917 35.2576 24.5455 35.3596 24.2887 35.3596C24.032 35.3596 23.7858 35.2576 23.6042 35.076C23.4227 34.8945 23.3207 34.6483 23.3207 34.3915V33.4235C23.3207 33.1668 23.4227 32.9205 23.6042 32.739C23.7858 32.5575 24.032 32.4555 24.2887 32.4555Z" fill="#161313"/>
</svg>
